<?xml version="1.0" encoding="UTF-8"?>
<svg version="1.1" xmlns="http://www.w3.org/2000/svg" width="128" height="128">
<path d="M0 0 C0.92217819 -0.00978378 1.84435638 -0.01956757 2.79447937 -0.02964783 C5.85703075 -0.05964449 8.91953816 -0.08100355 11.98217773 -0.09985352 C13.02823622 -0.10642534 14.0742947 -0.11299717 15.15205193 -0.11976814 C20.69315107 -0.15238646 26.23423083 -0.17682674 31.77539062 -0.19628906 C36.35673143 -0.21407737 40.93745385 -0.24885486 45.51855469 -0.29882812 C51.05171638 -0.35911867 56.58430616 -0.38977798 62.11778069 -0.39946175 C64.22326238 -0.40800574 66.32872925 -0.42679763 68.4340229 -0.45620537 C71.39027978 -0.49526322 74.34432609 -0.49613539 77.30078125 -0.48828125 C78.16295258 -0.50828186 79.0251239 -0.52828247 79.91342163 -0.54888916 C86.68256554 -0.46860153 90.92262762 1.94708185 96.10327148 6.20874023 C98.25952148 8.47436523 98.25952148 8.47436523 99.60327148 10.45874023 C100.06733398 11.12389648 100.53139648 11.78905273 101.00952148 12.47436523 C103.59352398 16.5718549 103.28059861 20.38438807 103.31201172 25.10546875 C103.3217955 26.02764694 103.33157928 26.94982513 103.34165955 27.89994812 C103.37165621 30.9624995 103.39301527 34.02500691 103.41186523 37.08764648 C103.41843706 38.13370497 103.42500889 39.17976345 103.43177986 40.25752068 C103.46439818 45.79861982 103.48883846 51.33969958 103.50830078 56.88085938 C103.52608908 61.46220018 103.56086658 66.0429226 103.61083984 70.62402344 C103.67113039 76.15718513 103.7017897 81.68977491 103.71147346 87.22324944 C103.72001746 89.32873113 103.73880935 91.434198 103.76821709 93.53949165 C103.80727494 96.49574853 103.80814711 99.44979484 103.80029297 102.40625 C103.83029388 103.69950699 103.83029388 103.69950699 103.86090088 105.01889038 C103.78061325 111.78803429 101.36492986 116.02809637 97.10327148 121.20874023 C94.83764648 123.36499023 94.83764648 123.36499023 92.85327148 124.70874023 C92.18811523 125.17280273 91.52295898 125.63686523 90.83764648 126.11499023 C86.74015682 128.69899273 82.92762365 128.38606736 78.20654297 128.41748047 C76.82327568 128.43215614 76.82327568 128.43215614 75.4120636 128.4471283 C72.34951221 128.47712496 69.28700481 128.49848402 66.22436523 128.51733398 C65.17830675 128.52390581 64.13224827 128.53047764 63.05449104 128.53724861 C57.5133919 128.56986693 51.97231214 128.59430721 46.43115234 128.61376953 C41.84981154 128.63155783 37.26908912 128.66633533 32.68798828 128.71630859 C27.15482659 128.77659914 21.62223681 128.80725845 16.08876228 128.81694221 C13.98328059 128.82548621 11.87781372 128.8442781 9.77252007 128.87368584 C6.81626319 128.91274369 3.86221688 128.91361586 0.90576172 128.90576172 C0.04359039 128.92576233 -0.81858093 128.94576294 -1.70687866 128.96636963 C-8.47602257 128.886082 -12.71608465 126.47039861 -17.89672852 122.20874023 C-20.05297852 119.94311523 -20.05297852 119.94311523 -21.39672852 117.95874023 C-21.86079102 117.29358398 -22.32485352 116.62842773 -22.80297852 115.94311523 C-25.38698101 111.84562557 -25.07405564 108.0330924 -25.10546875 103.31201172 C-25.11525253 102.38983353 -25.12503632 101.46765533 -25.13511658 100.51753235 C-25.16511324 97.45498096 -25.1864723 94.39247356 -25.20532227 91.32983398 C-25.21189409 90.2837755 -25.21846592 89.23771702 -25.22523689 88.15995979 C-25.25785521 82.61886065 -25.28229549 77.07778089 -25.30175781 71.53662109 C-25.31954612 66.95528029 -25.35432361 62.37455787 -25.40429688 57.79345703 C-25.46458742 52.26029534 -25.49524673 46.72770556 -25.5049305 41.19423103 C-25.51347449 39.08874934 -25.53226638 36.98328247 -25.56167412 34.87798882 C-25.60073197 31.92173194 -25.60160414 28.96768563 -25.59375 26.01123047 C-25.61375061 25.14905914 -25.63375122 24.28688782 -25.65435791 23.39859009 C-25.57407028 16.62944618 -23.1583869 12.3893841 -18.89672852 7.20874023 C-16.63110352 5.05249023 -16.63110352 5.05249023 -14.64672852 3.70874023 C-13.98157227 3.24467773 -13.31641602 2.78061523 -12.63110352 2.30249023 C-8.53361385 -0.28151226 -4.72108068 0.03141311 0 0 Z " fill="#13151A" transform="translate(24.896728515625,-0.208740234375)"/>
<path d="M0 0 C47.26966292 0 47.26966292 0 57 8 C61.96945404 14.24367303 62.85584571 20.18014945 62 28 C60.50716494 32.60226353 58.44274819 36.70696867 54 39 C53.01 39 52.02 39 51 39 C51 39.66 51 40.32 51 41 C51.721875 41.061875 52.44375 41.12375 53.1875 41.1875 C57.91036085 42.55188202 60.17760667 45.75223081 62.8125 49.75 C65.14814369 56.142288 64.54292721 62.53195699 62.15625 68.86328125 C58.64959504 75.34348484 52.41089119 78.8441239 45.65185547 81.20385742 C37.37247713 83.00884825 28.73810792 82.39662822 20.3125 82.25 C10.2578125 82.12625 10.2578125 82.12625 0 82 C0 54.94 0 27.88 0 0 Z " fill="#FAFAFA" transform="translate(32,15)"/>
<path d="M0 0 C21.12 0 42.24 0 64 0 C64 2.31 64 4.62 64 7 C42.88 7 21.76 7 0 7 C0 4.69 0 2.38 0 0 Z " fill="#C0E5FB" transform="translate(32,107)"/>
<path d="M0 0 C2.701875 -0.061875 5.40375 -0.12375 8.1875 -0.1875 C9.02949951 -0.21481201 9.87149902 -0.24212402 10.73901367 -0.27026367 C15.32319574 -0.32093869 18.29360873 0.00557089 22 3 C24.4486325 6.67294875 24.83183438 9.73268965 24 14 C21.46546343 17.21954645 19.88702695 18.70432435 16 20 C13.25917841 20.07056698 10.55153023 20.09336154 7.8125 20.0625 C5.234375 20.041875 2.65625 20.02125 0 20 C0 13.4 0 6.8 0 0 Z " fill="#18191E" transform="translate(52,62)"/>
<path d="M0 0 C14.37421439 -0.40681739 14.37421439 -0.40681739 20 3 C22.39286884 5.39286884 22.32050616 6.09447094 22.375 9.375 C22.30982816 12.75307372 22.21347457 13.71536724 20.125 16.5 C16.06892431 19.36311225 12.68435586 19.11608482 7.875 19.0625 C5.27625 19.041875 2.6775 19.02125 0 19 C0 12.73 0 6.46 0 0 Z " fill="#14161A" transform="translate(52,30)"/>
</svg>
